<svg width="218" height="47" viewBox="0 0 218 47" fill="none" xmlns="http://www.w3.org/2000/svg">
<path d="M53.344 27.56C53.344 24.808 53.856 22.392 54.88 20.312C55.936 18.232 57.36 16.632 59.152 15.512C60.944 14.392 62.944 13.832 65.152 13.832C66.912 13.832 68.512 14.2 69.952 14.936C71.424 15.672 72.576 16.664 73.408 17.912V5.47998H81.616V41H73.408V37.16C72.64 38.44 71.536 39.464 70.096 40.232C68.688 41 67.04 41.384 65.152 41.384C62.944 41.384 60.944 40.824 59.152 39.704C57.36 38.552 55.936 36.936 54.88 34.856C53.856 32.744 53.344 30.312 53.344 27.56ZM73.408 27.608C73.408 25.56 72.832 23.944 71.68 22.76C70.56 21.576 69.184 20.984 67.552 20.984C65.92 20.984 64.528 21.576 63.376 22.76C62.256 23.912 61.696 25.512 61.696 27.56C61.696 29.608 62.256 31.24 63.376 32.456C64.528 33.64 65.92 34.232 67.552 34.232C69.184 34.232 70.56 33.64 71.68 32.456C72.832 31.272 73.408 29.656 73.408 27.608ZM110.862 27.176C110.862 27.944 110.814 28.744 110.718 29.576H92.142C92.27 31.24 92.798 32.52 93.726 33.416C94.686 34.28 95.854 34.712 97.23 34.712C99.278 34.712 100.702 33.848 101.502 32.12H110.238C109.79 33.88 108.974 35.464 107.79 36.872C106.638 38.28 105.182 39.384 103.422 40.184C101.662 40.984 99.694 41.384 97.518 41.384C94.894 41.384 92.558 40.824 90.51 39.704C88.462 38.584 86.862 36.984 85.71 34.904C84.558 32.824 83.982 30.392 83.982 27.608C83.982 24.824 84.542 22.392 85.662 20.312C86.814 18.232 88.414 16.632 90.462 15.512C92.51 14.392 94.862 13.832 97.518 13.832C100.11 13.832 102.414 14.376 104.43 15.464C106.446 16.552 108.014 18.104 109.134 20.12C110.286 22.136 110.862 24.488 110.862 27.176ZM102.462 25.016C102.462 23.608 101.982 22.488 101.022 21.656C100.062 20.824 98.862 20.408 97.422 20.408C96.046 20.408 94.878 20.808 93.918 21.608C92.99 22.408 92.414 23.544 92.19 25.016H102.462ZM147.428 13.928C150.756 13.928 153.396 14.936 155.348 16.952C157.332 18.968 158.324 21.768 158.324 25.352V41H150.164V26.456C150.164 24.728 149.7 23.4 148.772 22.472C147.876 21.512 146.628 21.032 145.028 21.032C143.428 21.032 142.164 21.512 141.236 22.472C140.34 23.4 139.892 24.728 139.892 26.456V41H131.732V26.456C131.732 24.728 131.268 23.4 130.34 22.472C129.444 21.512 128.196 21.032 126.596 21.032C124.996 21.032 123.732 21.512 122.804 22.472C121.908 23.4 121.46 24.728 121.46 26.456V41H113.252V14.216H121.46V17.576C122.292 16.456 123.38 15.576 124.724 14.936C126.068 14.264 127.588 13.928 129.284 13.928C131.3 13.928 133.092 14.36 134.66 15.224C136.26 16.088 137.508 17.32 138.404 18.92C139.332 17.448 140.596 16.248 142.196 15.32C143.796 14.392 145.54 13.928 147.428 13.928ZM174.317 41.384C171.693 41.384 169.325 40.824 167.213 39.704C165.133 38.584 163.485 36.984 162.269 34.904C161.085 32.824 160.493 30.392 160.493 27.608C160.493 24.856 161.101 22.44 162.317 20.36C163.533 18.248 165.197 16.632 167.309 15.512C169.421 14.392 171.789 13.832 174.413 13.832C177.037 13.832 179.405 14.392 181.517 15.512C183.629 16.632 185.293 18.248 186.509 20.36C187.725 22.44 188.333 24.856 188.333 27.608C188.333 30.36 187.709 32.792 186.461 34.904C185.245 36.984 183.565 38.584 181.421 39.704C179.309 40.824 176.941 41.384 174.317 41.384ZM174.317 34.28C175.885 34.28 177.213 33.704 178.301 32.552C179.421 31.4 179.981 29.752 179.981 27.608C179.981 25.464 179.437 23.816 178.349 22.664C177.293 21.512 175.981 20.936 174.413 20.936C172.813 20.936 171.485 21.512 170.429 22.664C169.373 23.784 168.845 25.432 168.845 27.608C168.845 29.752 169.357 31.4 170.381 32.552C171.437 33.704 172.749 34.28 174.317 34.28ZM202.795 33.32L208.603 14.216H217.339L207.835 41H197.707L188.203 14.216H196.987L202.795 33.32Z" fill="white"/>
<path d="M36.9776 20.9628C38.8435 22.1398 38.8435 24.8604 36.9776 26.0374L5.1006 46.1458C3.1029 47.4059 0.5 45.9703 0.5 43.6084V3.39182C0.5 1.02992 3.1029 -0.405685 5.1006 0.854415L36.9776 20.9628Z" fill="white"/>
</svg>
